<?xml version="1.0" encoding="utf-8"?>
<!-- Generator: Adobe Illustrator 22.1.0, SVG Export Plug-In . SVG Version: 6.00 Build 0)  -->
<svg version="1.1" id="Capa_1" xmlns="http://www.w3.org/2000/svg" xmlns:xlink="http://www.w3.org/1999/xlink" x="0px" y="0px"
	 viewBox="0 0 512 512" style="enable-background:new 0 0 512 512;" xml:space="preserve">
<style type="text/css">
	.st0{fill:#FFFFFF;}
	.st1{fill:#FFFFFF;}
	.st2{fill:#FFFFFF;}
	.st3{fill:#FFFFFF;}
</style>
<path class="st0" d="M201.3,146.1c31.3,1.6,62,7,92.3,14.8c33.5,8.6,66.1,19.7,96.8,35.7c2.7,1.4,5.5,2.9,8.6,4.6c0,0,0,0,0.1,0
	c-0.2-3.4-0.3-6.5-0.5-9.5c-0.1-2.8-0.5-5.6-0.3-8.4c0.1-2-0.9-2.2-2.4-2.4c-8.7-1-17.1-3.2-24.9-7.1c-20.1-10-31.8-26-33.8-48.7
	c-0.8-9.3-0.9-18.6-0.1-28c0.1-1.4,0.4-2.2,2.1-1.9c19.2,2.9,36,10.3,47.9,26.4c6.3,8.6,9.4,18.6,11.6,28.9c0.2,0.8,0.4,1.7,1,2.5
	c0,0,0,0,0,0c0.3-3.2,0.6-6.5,0.8-9.7c0.7-9.3,1.8-18.6,2.9-27.9c0.3-2.2-0.1-3.8-2-5.4c-6.4-5.2-11.9-11.2-16.9-17.8
	c-9.6-12.8-12.8-26.6-8.4-42.3c3.3-11.8,7.1-23.4,11.7-34.7c0.4-1,0.8-2.1,1.2-3.1c-115,0-230.1,0-345.1,0c-2.6,0.7-5.3,0.3-7.8,1
	c-14.4,4.3-24.9,13-31.3,26.7c-1.7,3.5-1.6,7.3-2.5,11c0,44.8,0,89.6,0,134.4c35.5-16.7,72.6-28.2,111.4-34.4
	C142.7,146,171.9,144.5,201.3,146.1z"/>
<path class="st0" d="M508.8,293.4c-5.6-6.3-10.9-12.9-16.6-19.1c-18.6-20.1-39.2-38-61.8-53.5c-2-1.4-3.5-3-4.5-5.2
	c-3.5-7.7-6.1-15.7-8.1-23.9c-0.5-1.9,0-2.3,1.9-2.4c9.4-0.6,18.5-2.4,27.4-5.4c18-5.9,29.2-18.7,36.2-35.8
	c4.4-10.9,6.8-22.3,7.5-34c0.1-1.4-0.1-2-1.8-1.8c-14.6,2.4-28.9,5.6-42.5,11.4c-14.4,6-22.8,17.3-27.9,31.5c-1,2.9-2,5.8-2.5,8.8
	c-1.3,0.1-0.3-1.1-0.8-1.4c-0.8-14.9-1.7-29.7-2.6-44.6c-0.1-1.8,0.4-3.2,1.4-4.7c7.1-10.8,12.4-22.3,14.8-35.1
	c2-11,0.1-21.2-5.2-31c-6.8-12.6-16.3-22.9-26.8-32.4c-1-1-2.3-1.7-3-3c24.5,0,49,0,73.5,0c2.9,0.6,6,0.3,8.8,1.2
	c15.5,4.9,26.5,14.6,32,30.2c1,2.8,0.6,5.9,1.3,8.7c0,1.1,0,2.3,0,3.4c-0.5,1-0.2,2.1-0.2,3.1c0,77.3,0,154.5,0,231.8
	C509.1,291.4,509.4,292.5,508.8,293.4z"/>
<path class="st1" d="M508.8,293.4c0-70.6,0-141.2,0-211.7c0-7.8,0-15.6,0-23.4c0-0.9-0.3-1.9,0.5-2.8c0,79.4,0,158.9,0,238.3
	C509,293.9,508.9,293.7,508.8,293.4z"/>
<path class="st2" d="M508.8,306.5c0.2,0,0.3-0.1,0.5-0.1c0,49.6,0,99.3,0,148.9c-0.8-1-0.5-2.2-0.5-3.3c0-47.1,0-94.3,0-141.4
	C508.9,309.2,508.8,307.8,508.8,306.5z"/>
<path class="st3" d="M415.2,162.8c0.3,0.5,0.5,0.9,0.8,1.4c0.1,0.4,0.1,0.9-0.4,1c-0.6,0.2-0.5-0.4-0.5-0.8
	C415.1,163.9,415.1,163.3,415.2,162.8z"/>
<path class="st0" d="M367.6,298.3c-4.5,0-4.5,0-3.9-4.5c0.3-2.5,0.6-4.9,0.8-7.4c0.1-1.2,0.6-1.9,1.9-2c1.4-0.1,2.9-0.4,4.3-0.4
	c4.6-0.1,6.9,1.7,7.1,5.7c0.3,4.1-2.6,7.9-6.4,8.4C370.2,298.3,368.9,298.3,367.6,298.3z"/>
<path class="st0" d="M430.3,287.7c0.9,5.3,1.8,10.7,2.7,16c0.7,4.6,0.7,4.6-3.9,4.6c-2,0-4,0-6,0c-1.1,0-1.5-0.2-1.1-1.4
	c2.6-6.5,5.2-12.9,7.8-19.4C429.9,287.6,430.1,287.6,430.3,287.7z"/>
<path class="st0" d="M205.4,222.1c0.7,4.3,1.4,8.6,2.2,13c0.1,0.6-0.2,0.9-0.8,0.9c-0.3,0-0.6,0-1,0c-6.5,0.2-6.5,0.2-4.1-5.8
	c1.1-2.7,2.1-5.5,3.2-8.2C205.1,222.1,205.2,222.1,205.4,222.1z"/>
<g>
	<path class="st0" d="M401.9,375.4c-7.9,0-14,6.2-14,14.2c0,8,6.2,14.4,14.1,14.4c7.8,0,14.2-6.4,14.1-14.4
		C416.1,381.6,409.9,375.3,401.9,375.4z M403.8,395.1c-0.6-1.7-1.5-3.4-3.6-3.9c-1.1-0.2-1.7,0-1.6,1.3c0.1,1.1,0,2.2,0,3.4
		c0,1.1,0.2,2-1.5,2c-1.6,0-1.9-0.5-1.8-2c0.1-4.2,0.1-8.3,0-12.5c0-1.2,0.4-1.7,1.6-1.7c2,0.1,4,0,6,0.1c3.1,0,4.8,1.2,5.3,3.5
		c0.5,2.4-0.7,4.2-3.7,5.5c2.1,1.9,3.1,4.4,4.6,6.8C406.5,398.2,404.8,397.7,403.8,395.1z"/>
	<path class="st0" d="M347.3,415.4c-5.9-0.8-10.4,1.8-13.5,6.6c-4.2,6.4-5.2,13.6-3.6,21.1c1.5,6.7,6.3,10,12.9,9.2
		c3.7-0.4,6.6-2.4,8.9-5.2c4-4.9,5.1-10.8,5.4-17.4c-0.1-1.2-0.2-2.9-0.6-4.6C355.9,419.7,352.3,416.1,347.3,415.4z"/>
	<path class="st0" d="M402.5,384.3c-0.9-0.1-1.8-0.1-2.7-0.1c-0.5,0-0.9-0.1-1.1,0.5c-0.9,2.2,0.2,3.8,2.5,3.8c0.4,0,0.8,0,1.2,0
		c1.3-0.1,2.4-0.6,2.5-2.1C404.9,384.9,403.8,384.4,402.5,384.3z"/>
	<path class="st0" d="M509.1,452.4c0-48.5,0-96.9,0-145.4c-0.2-1.5-1-2.7-2-3.7c-3.6-3.8-7.6-7.1-11.5-10.6
		c-11.6-10.4-24-19.7-36.8-28.5c-19.7-13.6-40.6-25.1-62.3-35.3c-17-8-34.4-15-52.1-21.2c-25.2-8.8-50.8-15.9-76.8-21.7
		c-12.5-2.8-25-5.2-37.6-7.1c-11.6-1.7-23.2-3.2-34.9-4.1c-10.7-0.9-21.5-1.8-32.2-1.8c-13.4,0-26.7-0.4-40.1,0.4
		c-3.7,0.2-7.4,0.4-11.1,0.7c-9.9,0.8-19.8,1.8-29.7,3.2c-14.7,2-29.4,4.6-43.9,7.9c-10.6,2.4-21.1,5.3-31.4,8.4
		c-1.7,0.5-3.5,0.8-4.4,2.7c0,88,0,175.9,0,263.9c0.9,3,0.5,6.2,1.7,9.2c5.5,13.3,15.2,22.3,28.5,27.4c3.7,1.4,7.6,1.3,11.3,2.1
		c141.1,0,282.3,0,423.4,0c2.9-0.6,5.9-0.3,8.8-1.2c12.5-3.9,22.2-11.2,28.8-22.7c2.8-4.9,4-10.2,4.5-15.8c0-1.3,0-2.6,0-3.9
		C508.9,454.3,509.1,453.3,509.1,452.4z M296.5,282.9c0.4-1.5,0.4-3.2,0.6-4.8c0.6-4.5,2.6-6.4,7.2-6.5c6.3-0.1,12.6,0,18.8,0
		c6.4,0,12.7,0.1,19.1,0c1.7,0,2.1,0.5,1.8,2.1c-0.3,2-0.4,4-0.8,6c-0.8,3.9-2.6,5.4-6.4,5.5c-2.3,0.1-4.5,0.1-6.8,0
		c-1.5-0.1-2.1,0.5-2.3,2c-0.8,7.4-1.7,14.9-2.5,22.3c-0.4,3.7-1,7.3-1.1,11c0,2.4,0.4,4.6,2.8,5.7c1.1,0.5,0.5,0.9,0.1,1.4
		c-3.5,4.3-11.5,5.8-16.2,3c-3-1.7-3.8-4.6-4-7.8c-0.3-4.8,0.7-9.5,1.2-14.2c0.8-7.3,1.7-14.5,2.6-21.8c0.2-1.4-0.4-1.6-1.6-1.6
		c-3.5,0-6.9-0.1-10.4,0C296.9,285.2,295.9,285,296.5,282.9z M296.7,348.5c5.7-2.3,10.2,0.7,9.8,6.7c-0.5,7.1-1.4,14.2-2.3,21.3
		c-0.3,2,0.2,2.4,2.1,2.4c4.3-0.1,8.5,0,12.8-0.1c1.6,0,1.8,0.4,1.6,1.9c-1,6.8-1,6.9-8,6.9c-6,0-12.1,0-18.1,0c-2.9,0-3,0-2.6-3
		c1-9,2.1-17.9,3.1-26.9c0.3-2.5,0.6-5.1-2.1-6.6C293.9,349.8,295.2,349.1,296.7,348.5z M245.8,318.8c0.1-0.2,0-0.5,0.1-0.7
		c0.6-1.6,0.8-3.7,1.9-4.6c1.4-1.1,2.8,1,4.2,1.5c5.1,2.1,10.2,3.8,15.9,3.5c0.6,0,1.3,0,1.9-0.2c1.9-0.5,3.8-1,4.2-3.4
		c0.3-2.3-1.3-3.3-3-4.2c-1.4-0.7-2.9-1.3-4.4-1.9c-1.9-0.8-3.9-1.4-5.9-2.2c-12.5-5-15.5-16.8-6.9-27.3c4.8-5.9,12.2-8.9,22.1-8.8
		c3,0,6.4,0.2,9.7,1.4c5.5,1.9,7.5,5.2,6.7,10.9c0,0.3-0.1,0.6-0.2,0.9c-0.4,1.8-0.6,4.1-1.9,5.1c-1.6,1.1-3.1-1.1-4.7-1.8
		c-3.4-1.4-6.7-2.7-10.3-3.2c-2.3-0.3-4.5-0.2-6.6,1c-2.8,1.5-2.8,4.8,0,6.3c1.5,0.8,3,1.5,4.6,2.1c2.2,0.9,4.4,1.6,6.5,2.5
		c13.9,5.7,15.9,21.2,3.9,30.4c-6.7,5.1-14.5,6.1-22.7,5.6c-2.9-0.2-5.8-0.5-8.5-1.4C246.6,328.4,244.5,324.8,245.8,318.8z
		 M252.6,350.9c-0.9-0.6,0-0.9,0.3-1.3c2.3-2.3,6.7-3.1,9.7-1.8c2.6,1.2,3.3,3.5,3.1,6c-0.4,5.3-1.1,10.6-1.6,15.8
		c-0.1,1.4-0.3,2.9-0.2,4.3c0.2,2.2,0.9,4.1,3.3,4.8c2.6,0.7,4.9-0.4,6.4-2.8c1.1-1.9,1.5-4.1,1.7-6.2c0.7-5.7,1.3-11.3,2-17
		c0.4-3.7,1.6-4.8,5.2-4.8c1.1,0,2.3,0,3.4,0c3.3,0,3.3,0,2.9,3.2c-1,7.2-1.3,14.4-2.7,21.5c-2.4,11.9-13.3,18-24.8,14.2
		c-5.9-2-8.8-6.7-8.7-15.7c0.4-4.1,1-9.5,1.6-14.9C254.4,354.3,254.7,352.2,252.6,350.9z M234.8,361.6c1.9,0.8,3.9,1.5,5.8,2.3
		c3.7,1.6,7.2,3.6,7.7,8.1c0.6,5.1-1.3,9.3-5.5,12.4c-3.7,2.7-8.1,3.5-12.6,3.4c-2.9-0.1-5.8-0.2-8.5-1.3c-3.7-1.6-5-7.7-2.3-10.5
		c0.7-0.8,1.2,0,1.7,0.2c3.3,1.7,6.8,2.9,10.6,3c2,0,4.6,0.3,5.3-2.3c0.6-2.7-2-3.1-3.7-3.9c-1.8-0.8-3.6-1.4-5.4-2.1
		c-8.1-3.2-8.9-9.8-5.2-16.3c1.7-3,4.3-4.9,7.5-6.1c4.7-1.7,9.5-1.7,14.2-0.4c4.8,1.3,6.5,6.9,3.5,10.9c-0.7,1-1.1,0.2-1.5-0.1
		c-2.6-1.5-5.4-2.6-8.3-3c-0.8-0.1-1.6-0.2-2.4-0.1c-1.6,0.2-3.3,0.7-3.6,2.6C231.7,360.5,233.4,361,234.8,361.6z M196.4,220.4
		c0.8-1.9,1.9-4.1-0.7-5.8c-0.8-0.6,0-0.8,0.3-1c4.4-2.9,9.1-3.7,14-1.9c2.8,1,4,3.6,4.7,6.4c1.9,7.7,3.7,15.5,5.7,23.2
		c0.6,2.4,0.8,5,3.3,6.4c0.9,0.5,0.3,0.9,0,1.3c-2.3,2.5-5.1,2.8-8.2,2.2c-2.8-0.5-4.7-2.3-5.1-5.1c-0.3-2.3-1.4-3-3.6-2.8
		c-2.9,0.2-5.8,0.1-8.7,0c-0.8,0-1.6,0-1.9,1.1c-1.3,5.7-5.4,6.8-10.5,6.3c-0.9-0.1-1.9,0-3.3,0c3.4-7.3,6.6-14.1,9.8-20.9
		C193.5,226.7,195.1,223.6,196.4,220.4z M156.3,248.7c1.2-9.4,2.2-18.8,3.3-28.3c0.2-2.2,0.6-4.4-1.7-5.8c-0.7-0.5-0.2-0.8,0.1-1.1
		c1.9-2.2,6.3-3.3,9.4-2.2c2.5,0.9,3.9,3,3.6,6.7c-0.6,7-1.4,14.1-2.3,21.1c-0.3,2.1-0.1,3.1,2.4,2.9c3.7-0.2,7.4-0.1,11.1-0.1
		c0,0.4,0.1,0.5,0.1,0.6c-3,7.8-3.6,8.2-11.9,8.2c-4,0-8-0.1-12.1,0C156.7,250.8,156.1,250.7,156.3,248.7z M133.9,329.1
		c1.7-14.2,3.3-28.5,5-42.7c0.2-1.4,0.2-2.7,0.3-4.1c0.2-2.9-0.4-5.3-3.4-6.5c4.9-7,16.4-6.8,21.2-1.3c2.3,2.6,4.2,5.5,5.9,8.5
		c3.4,6.3,6.8,12.6,10.1,18.9c0.4,0.7,0.8,1.4,1.6,2.1c0.4-3.5,0.9-7,1.3-10.6c0.8-6.6,1.6-13.3,2.3-19.9c0.2-1.5,0.6-2,2.1-2
		c4.3,0.1,8.5,0.1,12.8,0c1.5,0,1.7,0.5,1.6,1.8c-1.7,14.2-3.4,28.5-5,42.7c-0.2,1.9-0.3,3.9-0.2,5.8c0,1.6,0.5,3.1,2,3.9
		c1.8,0.9,0.9,1.5,0.1,2.3c-5.3,5.2-14.1,5.1-19.4-0.1c-2.2-2.2-3.9-4.9-5.4-7.7c-3.7-6.7-7.4-13.4-11.1-20.1
		c-0.4-0.7-0.8-1.4-1.2-2c-0.2,0-0.3,0-0.5,0.1c-0.6,5.2-1.2,10.4-1.8,15.6c-0.4,3.8-0.8,7.5-1.4,11.3c-0.6,3.8-2.4,5.4-6.2,5.5
		c-3.1,0.1-6.3,0-9.4,0.1C133.8,330.7,133.8,330.2,133.9,329.1z M125.3,271.6c3.4,1.7,4.4,4.7,4.6,8.2c0.3,4.3-0.6,8.5-1,12.7
		c-1.2,10.6-2.5,21.2-3.7,31.9c-0.5,4.5-2.5,6.2-7,6.3c-3.1,0.1-6.3,0-9.4,0c-1.3,0-1.6-0.4-1.5-1.7c1.7-14.1,3.3-28.3,4.9-42.4
		c0.2-1.4,0.2-2.7,0.3-4.1c0.2-2.9-0.4-5.5-3.5-6.7C112.7,270.9,120,269,125.3,271.6z M73.1,293.8c-1.6,0-2.2,0.4-2.4,2
		c-0.7,5.6-1,11.2-2.2,16.7c-0.8,3.4-2.1,6.6-3.8,9.6c-5.5,9.6-22.5,13.7-31.8,2c-1.8-2.2-1.7-2.3,0.8-3.3c6.2-2.3,8.5-7.2,9.1-13.3
		c1-11.1,2-22.3,2.9-33.4c0.6-6.9,1.1-13.8,1.8-20.7c0.2-2-0.2-2.5-2.2-2.3c-4.8,0.5-9.8,0.6-13.9,3.7c-5.5-9.9,0.7-23.7,12-26.9
		c2.3-0.6,4.6-1,6.9-1c23.3,0,46.5,0,69.8,0c1.8,0,2.1,0.5,1.9,2.2c-0.9,6.7-1.7,13.4-2.3,20.1c-0.2,1.9-1.3,1.4-2.4,1.4
		c-13,0-25.9,0.1-38.9,0c-2.3,0-3.3,0.4-3.4,3c-0.2,4.9-0.8,9.8-1.3,14.7c-0.2,1.7,0.3,2.2,2,2.2c8.9-0.1,17.7,0.1,26.6-0.1
		c2.5,0,2.9,0.6,2.5,2.9c-0.7,3.8-0.8,7.7-1.6,11.5c-1.1,5.8-4.7,8.8-10.6,8.9C86.2,293.9,79.6,293.9,73.1,293.8z M153.6,396.4
		c-0.5-3.6-3-6.2-6.5-6.9c-6.7-1.3-12.4,1-17.2,5.6c-6.3,6-9.1,13.7-10.2,22.1c-0.5,4.4-0.4,8.7,0.9,12.9c2.6,8.7,9.7,14.3,18.7,15
		c11,0.9,21.1-1.8,29.9-8.6c0.4-0.3,0.9-0.7,1.5-1.1c5.1,9.4,3.1,18.4-5.5,24.6c-6.2,4.5-13.4,6.6-20.9,7.5
		c-11,1.4-21.8,0.4-31.9-4.3c-14.3-6.6-22-18.2-22.7-33.8c-0.9-20.3,5.2-38.2,21.6-51c16.4-12.8,35-15.6,54.6-8.2
		c8.2,3.1,14.3,8.8,16.3,17.7c3.2,14.3-8.3,28.3-22.2,27.2c-4.4-0.3-8-2.3-10.9-5.6c-0.9-1-0.9-1.5,0.2-2.4
		C152.7,404.3,154.2,400.8,153.6,396.4z M205.7,427c-1.2,10.7-2.5,21.4-3.8,32.1c-0.6,4.7-2.8,6.6-7.5,6.7c-3.4,0-6.8-0.1-10.1,0.1
		c-1.7,0.1-1.8-0.6-1.6-2c1.6-13,3.1-26,4.6-39.1c0.5-3.9,0.8-7.8,1.1-11.8c0.2-3-0.7-5.4-4-6.7c4.2-5.2,10.7-7.1,16.7-5.2
		c3.8,1.3,6,4.6,6.2,9.5C207.4,416.2,206.3,421.6,205.7,427z M198.4,313.2c1.5-13.2,3-26.4,4.5-39.6c0.2-1.5,0.6-2,2.2-2
		c12.8,0.1,25.6,0.1,38.4,0c1.5,0,2,0.4,1.6,1.9c-0.4,2-0.5,4-0.8,6c-0.5,3.7-2.3,5.4-6,5.8c-0.4,0-0.8,0.1-1.2,0.1
		c-2.8,0-5.6,0-8.5,0c0,0,0,0,0,0c-2.8,0-5.6,0.1-8.5,0c-1.5,0-2,0.5-2,1.9c-0.1,1.8-0.2,3.5-0.6,5.3c-0.3,1.5,0.3,1.7,1.6,1.7
		c5.4-0.1,10.8,0.1,16.2-0.1c2-0.1,2.4,0.6,2.1,2.4c-0.4,2.9-0.8,5.7-1,8.6c-0.1,1.6-1,1.5-2.1,1.5c-5.5,0-11,0-16.4,0
		c-1.6,0-2.2,0.4-2.3,2.1c-0.7,6.9,0.8,8.8,7.8,9.3c5.4,0.4,10.8-0.3,15.8-2.7c1.4-0.7,1.7-0.3,2,1c1.8,7.2-1,12.3-8.3,14.1
		c-7.6,1.9-15.3,2.2-22.9,0.1C201.1,328.2,197.4,322.4,198.4,313.2z M261.5,405.9c-0.5,2.5-0.6,5.1-1.1,7.6c-0.6,3-2.5,4.9-5.6,5.1
		c-6,0.5-12.1,0.2-18.1,0.2c-2.1,0-3.1,0.4-3,2.7c0.1,1.6-0.2,3.2-0.6,4.8c-0.5,1.9,0.4,2.1,2,2.1c6-0.1,11.9,0,17.9,0
		c1.5,0,2.2,0.2,1.8,2c-0.6,3.2-0.9,6.4-1.1,9.6c-0.1,1.9-0.9,2.2-2.5,2.2c-5.9-0.1-11.8,0.1-17.6-0.1c-1.8,0-2.3,0.6-2.5,2.2
		c-0.9,7.2,1.1,9.7,8.4,10.1c6,0.3,11.9-0.4,17.4-3.1c1.1-0.5,1.4-0.4,1.7,0.8c2.1,8.1-0.9,13.8-9,15.7c-8.2,2-16.6,2.3-24.8,0
		c-9.4-2.6-13.5-8.4-12.6-18c1.1-11.9,2.7-23.8,4.1-35.7c0.3-2.8,0.7-5.6,0.9-8.4c0.1-1.5,0.7-1.8,2.1-1.8c6.8,0.1,13.5,0,20.3,0
		c6.7,0,13.4,0,20.1,0C261,403.9,261.8,404.1,261.5,405.9z M309.5,453.6c-0.4,2-0.5,4-0.8,6c-0.6,4.1-2.8,6.2-7,6.3
		c-12,0.1-24,0-36,0.1c-1.1,0-1.6-0.1-1.4-1.4c1.9-15.5,3.7-31,5.4-46.5c0.2-1.4,0.2-2.7,0.3-4.1c0.2-3.3-0.3-6.2-3.9-7.4
		c4.1-5.3,11.6-7.4,17.4-4.8c3.6,1.6,4.9,4.7,5.2,8.3c0.5,5.3-0.7,10.6-1.2,15.9c-0.8,7.6-1.7,15.2-2.7,22.8
		c-0.3,2.1,0.1,2.8,2.4,2.7c6.7-0.2,13.4,0,20-0.1C309.6,451.1,309.9,451.8,309.5,453.6z M345.9,466.6c-16.7,3.3-31.6-6.1-35-22.3
		c-0.4-2-0.5-4.1-0.8-6.2c0.1-23.9,22.8-42.3,45.4-36.6c13,3.3,21.6,14.7,21.2,28.4C376.3,448.1,363.7,463.1,345.9,466.6z
		 M375.5,330.9c-3.2-1.3-5.1-3.9-6.4-6.9c-1.9-4.6-3.8-9.2-5.7-13.8c-0.3-0.7-0.3-1.6-1.4-2.1c-0.7,6-1.4,11.9-2,17.7
		c-0.5,4.8-0.4,4.9-5.4,4.9c-3.6,0-7.2,0-10.9,0c-1.2,0-1.7-0.3-1.5-1.6c2.1-17.8,4.1-35.6,6.2-53.5c0.1-0.9,0-1.8,1.2-2.1
		c10.7-2.5,21.5-4.4,32.5-2C393.3,273.9,398,282,395,293c-1.8,6.7-6,11.5-12.5,14.1c-1.5,0.6-1.7,1.1-1,2.5c2,3.8,3.7,7.7,6.3,11.1
		c1.6,2.1,3.4,3.8,6.3,4.2C390.1,331.2,382,333.7,375.5,330.9z M401.5,407.4c-9.6-0.1-17.1-7.9-17.1-17.9
		c0.1-10.2,7.6-17.7,17.8-17.6c9.8-0.3,17.8,8.4,17.3,18.3C419.2,400.1,411.6,407.5,401.5,407.4z M458.3,328.4
		c-3.9,3.7-8.5,4.2-13.5,2.9c-4.6-1.2-6.8-4.5-7.4-8.8c-0.3-2.3-1.3-3-3.6-2.9c-4.9,0.2-9.8,0.1-14.7,0c-1.6,0-2.4,0.4-3,1.9
		c-3.5,8.5-4.5,9.1-13.9,9.1c-2.4,0-4.8,0-7.5,0c1-2.2,1.9-4.1,2.8-5.9c6-12.5,11.9-24.9,17.9-37.4c0.7-1.5,1.4-3,1.9-4.7
		c1-3.7,0.6-4.8-2.8-6.9c2.7-2.3,5.7-3.7,9.1-4.6c3.2-0.8,6.6-0.8,9.8-0.5c6.4,0.7,9.9,4.7,11.4,10.6c2.9,11.4,5.7,22.9,8.6,34.4
		c0.6,2.3,1.3,4.5,2,6.7c0.5,1.4,1.2,2.8,2.6,3.3C460,326.4,459.5,327.2,458.3,328.4z"/>
</g>
</svg>
