<?xml version="1.0" encoding="utf-8"?>
<!-- Generator: Adobe Illustrator 22.1.0, SVG Export Plug-In . SVG Version: 6.00 Build 0)  -->
<svg version="1.1" id="Capa_1" xmlns="http://www.w3.org/2000/svg" xmlns:xlink="http://www.w3.org/1999/xlink" x="0px" y="0px"
	 viewBox="0 0 512 512" style="enable-background:new 0 0 512 512;" xml:space="preserve">
<style type="text/css">
	.st0{fill:#FFFFFF;}
</style>
<g>
	<path class="st0" d="M316.6,286.4l-0.9-0.4c-2.1-1-4.3-1.9-6.5-2.7c-2.4-1-4.9-1.8-7.3-2.7c-1.9-0.6-3.9-1.2-5.9-1.8
		c-3-0.9-6.1-1.6-9.2-2.3c-1.1-0.2-2.1-0.4-3.2-0.6l-0.8-0.1c-1.8-0.3-3.7-0.7-5.6-1l-0.5-0.1h-0.1l-0.5-0.1
		c-1.6-0.2-3.1-0.5-4.7-0.6l-5.5-0.5c-6.8-0.5-13.7-0.4-20.4,0.1l-2,0.1l-0.9,0.1l-2.3,0.2c-2.1,0.2-4.2,0.5-6.3,0.8l-0.6,0.1
		c-1.4,0.2-2.9,0.5-4.2,0.8c-1.6,0.3-3.1,0.6-4.6,0.9c-2.9,0.7-5.9,1.4-8.8,2.3c-2.3,0.7-4.5,1.4-6.6,2.1l-1.4,0.5
		c-4.4,1.6-8.9,3.4-13.2,5.4l-1.2,0.5l0,0c-50.2,24.1-82.7,75.4-82.7,131c0,1.3,0.1,2.5,0.1,3.8l0.4,8.8h289.6l0.4-8.8
		c0.1-1.3,0.1-2.6,0.1-3.9C401.4,361.8,368.1,310.1,316.6,286.4z M124.8,416.8c0.6-50,30.1-95.8,75.2-117l1.4-0.5l0.1-0.1
		c3.6-1.6,7.2-3.1,10.9-4.4l1.2-0.4c2-0.7,4-1.4,6.1-1.9c2.6-0.8,5.3-1.4,7.9-2.1c1.4-0.3,2.7-0.5,4.2-0.8c1.1-0.2,2.3-0.4,3.3-0.6
		l0.5-0.1c2.1-0.3,4.1-0.6,6.1-0.8l4.6-0.4c6.1-0.5,11.9-0.5,18.9,0l4.5,0.4c1.1,0.1,2.3,0.3,3.6,0.5l1.6,0.2
		c1.7,0.3,3.4,0.5,5.1,0.9l0.8,0.1c1,0.2,1.9,0.3,2.8,0.5c2.8,0.6,5.5,1.4,8.3,2.1c1.8,0.5,3.6,1.1,5.3,1.6c2.2,0.8,4.4,1.6,6.6,2.4
		c2.1,0.8,4.1,1.7,6.2,2.6l0.3,0.1c46.1,21.1,76,67.1,76.6,117.6L124.8,416.8L124.8,416.8z M220.9,255.1c1.1,0.5,2.2,0.8,3.3,1.2
		l2.3,0.8c0.9,0.3,1.8,0.7,2.7,1c8.5,2.7,17.3,4,26.3,4.1h0.7c3.1,0,6.2-0.1,9.2-0.5c1-0.1,2-0.3,3-0.4l2.3-0.3
		c1.2-0.1,2.5-0.3,3.8-0.6c0.9-0.2,1.8-0.4,2.6-0.7l2.5-0.6c1.2-0.3,2.4-0.6,3.6-1c0.8-0.2,1.4-0.5,2.2-0.8l2-0.7
		c1.4-0.5,2.8-1,4.2-1.6c0.5-0.2,1.1-0.5,1.6-0.8l0.6-0.3c1.9-0.9,3.8-1.7,5.7-2.7l1.2-0.8c2.1-1.2,4.2-2.5,6.4-3.9
		c1.1-0.8,2.2-1.6,3.2-2.5l3.6-2.8c20.9-17.3,32.9-42.7,32.9-69l0.1-0.8c0.1-49.9-40.6-90.6-90.6-90.6c-47.7,0-87.4,37.3-90.4,84.9
		l-0.1,1.2c-0.1,1.5-0.2,3-0.2,4.5C165.5,208.1,187.3,240.9,220.9,255.1z M179.9,168.1l0.1-1.3c2.5-40.1,36-71.6,76.2-71.6
		c42.2,0,76.4,34.2,76.4,75.7l-0.1,0.8c0,22.8-10.2,44.2-27.9,58.9l-3.3,2.6c-0.8,0.6-1.5,1.2-2.5,1.8c-1.7,1.2-3.5,2.2-5.3,3.2
		l-1,0.6c-1.5,0.8-3.1,1.6-4.9,2.3l-1.9,0.9c-1.1,0.5-2.2,0.8-3.3,1.2l-2.3,0.8c-0.5,0.1-0.9,0.3-1.4,0.5c-0.9,0.3-1.8,0.5-2.7,0.7
		l-2.8,0.8c-0.6,0.1-1.2,0.3-1.8,0.5c-1,0.2-1.9,0.3-2.9,0.5l-2.7,0.4c-0.7,0.1-1.3,0.2-2.1,0.3c-2.4,0.3-4.7,0.4-7.2,0.4h-0.7l0,0
		c-7.8,0-15.4-1.2-22.7-3.4c-0.6-0.2-1.2-0.5-1.8-0.7l-2.7-1c-0.8-0.3-1.6-0.5-2.5-0.9c-28.4-12-46.7-39.6-46.7-70.4
		C179.8,170.4,179.8,169.3,179.9,168.1z"/>
</g>
</svg>
